<?xml version="1.0" encoding="utf-8"?>
<!-- Generator: Adobe Illustrator 18.1.1, SVG Export Plug-In . SVG Version: 6.00 Build 0)  -->
<svg version="1.1" id="Layer_1" xmlns="http://www.w3.org/2000/svg" xmlns:xlink="http://www.w3.org/1999/xlink" x="0px" y="0px"
	 viewBox="-255 347 100 100" enable-background="new -255 347 100 100" xml:space="preserve">
<circle fill="#0DB14B" cx="-205" cy="397" r="50"/>
<path fill="#EDDB3A" d="M-181.5,389.9C-186.9,378.8-198,375-205,375c-7,0-18.1,3.8-23.5,14.9c-5.4,11.1-1.1,21.4,4.2,28.3
	c5.3,6.9,5.9,9.9,6.2,11.6c0.3,1.7-0.7,4.3,1.3,6.1c2,1.8,11.8,2.1,11.8,2.1s9.7-0.3,11.8-2.1c2-1.8,0.9-4.4,1.3-6.1
	c0.3-1.7,0.9-4.7,6.2-11.6C-180.5,411.3-176.1,401-181.5,389.9L-181.5,389.9z"/>
<path fill="#DDB857" d="M-196.2,398.1c-0.3-0.1-0.6-0.1-0.9-0.1l-0.1,0l-0.8,0.1c-2.3,0.4-4,2.5-4,4.9v3h-7.9v-3
	c0-2.5-1.7-4.5-4-4.9l-0.8-0.1l-0.1,0c-0.3,0-0.6,0-0.9,0.1c-2.4,0.4-4.2,2.4-4.2,4.9c0,2.8,2.2,5,5,5h3v30h2v-30h8v30h2v-30h3
	c2.8,0,5-2.2,5-5C-192,400.5-193.8,398.5-196.2,398.1z M-218,403c0-1.6,1.3-2.9,2.9-3h0.2c1.6,0,3,2.3,3,5l0,0.9h-3.1
	C-216.7,406-218,404.7-218,403z M-197,406h-3.1l0-0.9c0-2.8,1.3-5,3-5h0.2c1.6,0,2.9,1.4,2.9,3C-194,404.7-195.3,406-197,406z"/>
<path fill="#EFE914" d="M-205,355c-1.1,0-2,0.9-2,2v8c0,1.1,0.9,2,2,2s2-0.9,2-2v-8C-203,355.9-203.9,355-205,355z M-187.2,359.1
	c-1-0.4-2.2,0.1-2.6,1l-3,7.1c-0.4,1,0.1,2.1,1.1,2.5c1,0.4,2.2-0.1,2.6-1l3-7.1C-185.7,360.7-186.2,359.5-187.2,359.1z
	 M-220.2,360.2c-0.4-1-1.6-1.5-2.6-1c-1,0.4-1.5,1.5-1.1,2.5l3,7.1c0.4,1,1.6,1.5,2.6,1c1-0.4,1.5-1.5,1.1-2.5
	C-217.2,367.3-220.2,360.2-220.2,360.2z M-173.6,369.5c-0.7-0.7-1.9-0.7-2.6,0l-5.3,5.3c-0.7,0.7-0.7,1.9,0,2.6
	c0.7,0.7,1.9,0.7,2.6,0l5.3-5.3C-172.8,371.4-172.8,370.3-173.6,369.5z M-233.8,369.5c-0.7-0.7-1.9-0.7-2.6,0
	c-0.7,0.7-0.7,1.9,0,2.6l5.3,5.3c0.7,0.7,1.9,0.7,2.6,0c0.7-0.7,0.7-1.9,0-2.6C-228.5,374.8-233.8,369.5-233.8,369.5z"/>
<path fill="#D7B354" d="M-213.8,435.9c-2-1.8-1-4.4-1.3-6.1c-0.3-1.7-0.9-4.7-6.2-11.6c-5.3-6.9-9.7-17.2-4.2-28.3
	c5.1-10.3,15.1-14.3,22-14.8c-0.5,0-1-0.1-1.5-0.1c-7,0-18.1,3.8-23.5,14.9c-5.4,11.1-1.1,21.4,4.2,28.3c5.3,6.9,5.9,9.9,6.2,11.6
	c0.3,1.7-0.7,4.3,1.3,6.1c2,1.8,11.8,2.1,11.8,2.1s0.6,0,1.5-0.1C-206.3,437.8-212.2,437.3-213.8,435.9L-213.8,435.9z"/>
<path fill="#FFFFFF" d="M-195.2,398.1c-0.3-0.1-0.6-0.1-0.9-0.1l-0.1,0l-0.8,0.1c-2.3,0.4-4,2.5-4,4.9v3h-7.9v-3
	c0-2.5-1.7-4.5-4-4.9l-0.8-0.1l-0.1,0c-0.3,0-0.6,0-0.9,0.1c-2.4,0.4-4.2,2.4-4.2,4.9c0,2.8,2.2,5,5,5h3v30h2v-30h8v30h2v-30h3
	c2.8,0,5-2.2,5-5C-191,400.5-192.8,398.5-195.2,398.1z M-217,403c0-1.6,1.3-2.9,2.9-3h0.2c1.6,0,3,2.3,3,5l0,0.9h-3.1
	C-215.7,406-217,404.7-217,403z M-196,406h-3.1l0-0.9c0-2.8,1.3-5,3-5h0.2c1.6,0,2.9,1.4,2.9,3C-193,404.7-194.3,406-196,406z"/>
<path fill="#EFEFEF" d="M-193.2,434.9c-2,1.8-11.8,2.1-11.8,2.1s-9.8-0.3-11.8-2.1c-0.6-0.6-1-1.2-1.1-1.9h-0.1v12.3
	c4.1,1.1,8.5,1.7,13,1.7s8.9-0.6,13-1.7V433h-0.1C-192.3,433.7-192.6,434.3-193.2,434.9z"/>
</svg>
