<?xml version="1.0" encoding="utf-8"?>
<!-- Generator: Adobe Illustrator 18.1.1, SVG Export Plug-In . SVG Version: 6.00 Build 0)  -->
<svg version="1.1" id="Layer_1" xmlns="http://www.w3.org/2000/svg" xmlns:xlink="http://www.w3.org/1999/xlink" x="0px" y="0px"
	 viewBox="0 90 612 612" enable-background="new 0 90 612 612" xml:space="preserve">
<circle fill="#FCB713" cx="306" cy="396" r="306"/>
<g>
	<path fill="#770000" d="M353.4,385.9v35.5c0,1.2-0.6,2.4-1.2,3.7c-0.6,1.2-1.8,1.8-3.1,1.8l-30,4.9c-1.2,4.3-3.7,9.2-6.1,14.7
		c4.3,6.1,10.4,13.5,17.1,22c0.6,1.2,1.2,2.4,1.2,3.7c0,1.8-0.6,3.1-1.2,3.7c-3.1,3.7-8,9.8-15.9,17.1c-7.3,7.3-12.9,11.6-15.3,11.6
		c-1.2,0-3.1-0.6-4.3-1.2l-22-17.1c-4.9,2.4-9.8,4.3-14.7,6.1c-1.2,14.1-3.1,23.9-4.3,30c-0.6,3.1-3.1,4.9-5.5,4.9h-35.5
		c-1.2,0-2.4-0.6-3.7-1.2c-1.2-1.2-1.8-1.8-1.8-3.1l-4.3-29.4c-4.3-1.2-9.2-3.1-14.7-6.1l-22.6,17.1c-0.6,0.6-2.4,1.2-3.7,1.2
		c-1.2,0-3.1-0.6-4.3-1.2c-18.4-17.1-27.5-27.5-27.5-30.6c0-1.2,0.6-2.4,1.2-3.7c1.2-1.8,3.7-4.9,8-10.4c3.7-4.9,6.7-9.2,9.2-11.6
		c-3.1-5.5-4.9-11-6.7-15.9l-29.4-4.9c-1.2,0-2.4-0.6-3.1-1.8c-0.6-1.2-1.2-2.4-1.2-3.7v-35.5c0-1.2,0.6-2.4,1.2-3.7
		c0.6-1.2,1.8-1.8,3.1-1.8l30-4.9c1.2-4.3,3.7-9.2,6.1-14.7c-4.3-6.1-10.4-13.5-17.1-22c-0.6-1.2-1.2-2.4-1.2-3.7
		c0-1.2,0.6-3.1,1.2-3.7c3.1-3.7,8-9.8,15.9-17.1c8-7.3,12.9-11.6,15.3-11.6c1.2,0,2.4,0.6,4.3,1.2l22,17.1
		c4.3-2.4,9.2-4.3,14.7-6.1c1.2-14.1,3.1-23.9,4.3-29.4c0.6-3.1,3.1-4.9,5.5-4.9h35.5c1.2,0,2.4,0.6,3.7,1.2
		c1.2,1.2,1.8,1.8,1.8,3.1l4.3,29.4c4.3,1.2,9.2,3.1,14.7,6.1l22.6-17.1c1.2-0.6,2.4-1.2,3.7-1.2c1.2,0,2.4,0.6,4.3,1.8
		c18.4,17.1,27.5,27.5,27.5,30.6c0,1.2-0.6,2.4-1.2,3.7c-1.2,1.8-4.3,5.5-8,10.4c-3.7,4.9-6.7,8.6-8.6,11.6
		c3.1,6.1,4.9,11.6,6.7,15.9l29.4,4.3c1.2,0,2.4,1.2,3.1,1.8C352.8,382.9,353.4,384.7,353.4,385.9z M265.2,437.9
		c9.8-9.8,14.7-21.4,14.7-34.9c0-13.5-4.9-25.1-14.7-34.9c-9.8-9.8-21.4-14.7-34.9-14.7c-13.5,0-25.1,4.9-34.9,14.7
		c-9.8,9.8-14.7,21.4-14.7,34.9c0,13.5,4.9,25.1,14.7,34.9c9.8,9.8,21.4,14.7,34.9,14.7C243.8,452.6,255.5,447.7,265.2,437.9z
		 M475.8,291.7v26.9c0,1.8-9.8,4.3-28.8,6.1c-1.8,3.7-3.7,6.7-5.5,9.8c6.7,14.7,9.8,23.3,9.8,26.3c0,0.6,0,1.2-0.6,1.2
		c-15.9,9.2-23.3,13.5-23.9,13.5c-1.2,0-3.7-3.1-8.6-9.2c-4.9-6.1-8-10.4-9.8-12.9c-2.4,0-4.3,0.6-5.5,0.6c-1.2,0-3.1,0-5.5-0.6
		c-1.8,2.4-4.9,7.3-9.8,12.9c-4.9,6.1-8,9.2-8.6,9.2c0,0-8-4.3-23.9-13.5c-0.6-0.6-0.6-0.6-0.6-1.2c0-3.1,3.1-12.2,9.8-26.3
		c-2.4-3.1-4.3-6.7-5.5-9.8c-19-1.8-28.8-3.7-28.8-6.1v-26.9c0-1.8,9.8-4.3,28.8-6.1c1.8-3.7,3.7-7.3,5.5-9.8
		c-6.7-14.7-9.8-23.3-9.8-26.3c0-0.6,0-1.2,0.6-1.2s3.1-1.2,6.7-3.7c3.7-2.4,8-4.3,11.6-6.7c3.7-2.4,5.5-3.1,5.5-3.1
		c1.2,0,3.7,3.1,8.6,9.2c4.9,6.1,8,10.4,9.8,12.9c2.4,0,4.3-0.6,5.5-0.6c1.2,0,3.1,0,5.5,0.6c6.7-9.2,12.2-16.5,17.7-21.4l1.2-0.6
		c0.6,0,8.6,4.3,23.9,13.5c0.6,0.6,0.6,0.6,0.6,1.2c0,3.1-3.1,12.2-9.8,26.3c2.4,3.1,4.3,6.1,5.5,9.8
		C466.6,287.4,475.8,289.2,475.8,291.7z M475.8,488.1v26.9c0,1.8-9.8,4.3-28.8,6.1c-1.8,3.7-3.7,6.7-5.5,9.8
		c6.7,14.7,9.8,23.3,9.8,26.3c0,0.6,0,1.2-0.6,1.2c-15.9,9.2-23.3,13.5-23.9,13.5c-1.2,0-3.7-3.1-8.6-9.2c-4.9-6.1-8-10.4-9.8-12.9
		c-2.4,0-4.3,0.6-5.5,0.6c-1.2,0-3.1,0-5.5-0.6c-1.8,2.4-4.9,7.3-9.8,12.9c-4.9,6.1-8,9.2-8.6,9.2c0,0-8-4.3-23.9-13.5
		c-0.6-0.6-0.6-0.6-0.6-1.2c0-3.1,3.1-12.2,9.8-26.3c-2.4-3.1-4.3-6.7-5.5-9.8c-19-1.8-28.8-3.7-28.8-6.1v-26.9
		c0-1.8,9.8-4.3,28.8-6.1c1.8-3.7,3.7-6.7,5.5-9.8c-6.7-14.7-9.8-23.3-9.8-26.3c0-0.6,0-1.2,0.6-1.2s3.1-1.8,6.7-3.7
		c3.7-2.4,8-4.3,11.6-6.7c3.7-1.8,5.5-3.1,5.5-3.1c1.2,0,3.7,3.1,8.6,9.2c4.9,6.1,8,10.4,9.8,12.9c2.4,0,4.3-0.6,5.5-0.6
		c1.2,0,3.1,0,5.5,0.6c6.7-9.2,12.2-16.5,17.7-21.4l1.2-0.6c0.6,0,8.6,4.3,23.9,13.5c0.6,0.6,0.6,0.6,0.6,1.2
		c0,3.1-3.1,12.2-9.8,26.3c2.4,3.1,4.3,6.1,5.5,9.8C466.6,484.5,475.8,486.3,475.8,488.1z M426.8,305.1c0-6.7-2.4-12.2-7.3-17.1
		c-4.9-4.9-10.4-7.3-17.1-7.3c-6.7,0-12.2,2.4-17.1,7.3c-4.9,4.9-7.3,10.4-7.3,17.1c0,6.7,2.4,12.9,7.3,17.1
		c4.9,4.9,10.4,7.3,17.1,7.3c6.7,0,12.9-2.4,17.1-7.3C424.4,317.4,426.8,311.9,426.8,305.1z M426.8,501.6c0-6.7-2.4-12.2-7.3-17.1
		c-4.9-4.9-10.4-7.3-17.1-7.3c-6.7,0-12.2,2.4-17.1,7.3c-4.9,4.9-7.3,10.4-7.3,17.1c0,6.7,2.4,12.9,7.3,17.1
		c4.9,4.9,10.4,7.3,17.1,7.3c6.7,0,12.9-2.4,17.1-7.3C424.4,514.4,426.8,508.3,426.8,501.6z"/>
</g>
<g>
	<path fill="#ED1C24" d="M353.2,371.2v35.5c0,1.2-0.6,2.4-1.2,3.7c-0.6,1.2-1.8,1.8-3.1,1.8l-30,4.9c-1.2,4.3-3.7,9.2-6.1,14.7
		c4.3,6.1,10.4,13.5,17.1,22c0.6,1.2,1.2,2.4,1.2,3.7c0,1.8-0.6,3.1-1.2,3.7c-3.1,3.7-8,9.8-15.9,17.1c-7.3,7.3-12.9,11.6-15.3,11.6
		c-1.2,0-3.1-0.6-4.3-1.2l-22-17.1c-4.9,2.4-9.8,4.3-14.7,6.1c-1.2,14.1-3.1,23.9-4.3,30c-0.6,3.1-3.1,4.9-5.5,4.9h-35.5
		c-1.2,0-2.4-0.6-3.7-1.2c-1.2-1.2-1.8-1.8-1.8-3.1l-4.3-29.4c-4.3-1.2-9.2-3.1-14.7-6.1l-22.6,17.1c-0.6,0.6-2.4,1.2-3.7,1.2
		c-1.2,0-3.1-0.6-4.3-1.2c-18.4-17.1-27.5-27.5-27.5-30.6c0-1.2,0.6-2.4,1.2-3.7c1.2-1.8,3.7-4.9,8-10.4c3.7-4.9,6.7-9.2,9.2-11.6
		c-3.1-5.5-4.9-11-6.7-15.9l-29.4-4.9c-1.2,0-2.4-0.6-3.1-1.8c-0.6-1.2-1.2-2.4-1.2-3.7v-35.5c0-1.2,0.6-2.4,1.2-3.7
		c0.6-1.2,1.8-1.8,3.1-1.8l30-4.9c1.2-4.3,3.7-9.2,6.1-14.7c-4.3-6.1-10.4-13.5-17.1-22c-0.6-1.2-1.2-2.4-1.2-3.7
		c0-1.2,0.6-3.1,1.2-3.7c3.1-3.7,8-9.8,15.9-17.1c8-7.3,12.9-11.6,15.3-11.6c1.2,0,2.4,0.6,4.3,1.2l22,17.1
		c4.3-2.4,9.2-4.3,14.7-6.1c1.2-14.1,3.1-23.9,4.3-29.4c0.6-3.1,3.1-4.9,5.5-4.9h35.5c1.2,0,2.4,0.6,3.7,1.2
		c1.2,1.2,1.8,1.8,1.8,3.1l4.3,29.4c4.3,1.2,9.2,3.1,14.7,6.1l22.6-17.1c1.2-0.6,2.4-1.2,3.7-1.2c1.2,0,2.4,0.6,4.3,1.8
		c18.4,17.1,27.5,27.5,27.5,30.6c0,1.2-0.6,2.4-1.2,3.7c-1.2,1.8-4.3,5.5-8,10.4c-3.7,4.9-6.7,8.6-8.6,11.6
		c3.1,6.1,4.9,11.6,6.7,15.9l29.4,4.3c1.2,0,2.4,1.2,3.1,1.8C352.6,368.1,353.2,369.4,353.2,371.2z M265.1,423.2
		c9.8-9.8,14.7-21.4,14.7-34.9s-4.9-25.1-14.7-34.9c-9.8-9.8-21.4-14.7-34.9-14.7c-13.5,0-25.1,4.9-34.9,14.7
		c-9.8,9.8-14.7,21.4-14.7,34.9s4.9,25.1,14.7,34.9c9.8,9.8,21.4,14.7,34.9,14.7C243.7,437.9,255.3,433,265.1,423.2z M476.2,276.9
		v26.9c0,1.8-9.8,4.3-28.8,6.1c-1.8,3.7-3.7,6.7-5.5,9.8c6.7,14.7,9.8,23.3,9.8,26.3c0,0.6,0,1.2-0.6,1.2
		c-15.9,9.2-23.3,13.5-23.9,13.5c-1.2,0-3.7-3.1-8.6-9.2c-4.9-6.1-8-10.4-9.8-12.9c-2.4,0-4.3,0.6-5.5,0.6c-1.2,0-3.1,0-5.5-0.6
		c-1.8,2.4-4.9,7.3-9.8,12.9c-4.9,6.1-8,9.2-8.6,9.2c0,0-8-4.3-23.9-13.5c-0.6-0.6-0.6-0.6-0.6-1.2c0-3.1,3.1-12.2,9.8-26.3
		c-2.4-3.1-4.3-6.7-5.5-9.8c-19-1.8-28.8-3.7-28.8-6.1v-26.9c0-1.8,9.8-4.3,28.8-6.1c1.8-3.7,3.7-7.3,5.5-9.8
		c-6.7-14.7-9.8-23.3-9.8-26.3c0-0.6,0-1.2,0.6-1.2s3.1-1.2,6.7-3.7c3.7-2.4,8-4.3,11.6-6.7c3.7-1.8,5.5-3.1,5.5-3.1
		c1.2,0,3.7,3.1,8.6,9.2c4.9,6.1,8,10.4,9.8,12.9c2.4,0,4.3-0.6,5.5-0.6c1.2,0,3.1,0,5.5,0.6c6.7-9.2,12.2-16.5,17.7-21.4l1.2-0.6
		c0.6,0,8.6,4.3,23.9,13.5c0.6,0.6,0.6,0.6,0.6,1.2c0,3.1-3.1,12.2-9.8,26.3c2.4,3.1,4.3,6.1,5.5,9.8
		C466.4,272.7,476.2,274.5,476.2,276.9z M476.2,473.4v26.9c0,1.8-9.8,4.3-28.8,6.1c-1.8,3.7-3.7,6.7-5.5,9.8
		c6.7,14.7,9.8,23.3,9.8,26.3c0,0.6,0,1.2-0.6,1.2c-15.9,9.2-23.3,13.5-23.9,13.5c-1.2,0-3.7-3.1-8.6-9.2c-4.9-6.1-8-10.4-9.8-12.9
		c-2.4,0-4.3,0.6-5.5,0.6c-1.2,0-3.1,0-5.5-0.6c-1.8,2.4-4.9,7.3-9.8,12.9c-4.9,6.1-8,9.2-8.6,9.2c0,0-8-4.3-23.9-13.5
		c-0.6-0.6-0.6-0.6-0.6-1.2c0-3.1,3.1-12.2,9.8-26.3c-2.4-3.1-4.3-6.7-5.5-9.8c-19-1.8-28.8-3.7-28.8-6.1v-26.9
		c0-1.8,9.8-4.3,28.8-6.1c1.8-3.7,3.7-6.7,5.5-9.8c-6.7-14.7-9.8-23.3-9.8-26.3c0-0.6,0-1.2,0.6-1.2s3.1-1.8,6.7-3.7
		c3.7-2.4,8-4.3,11.6-6.7c3.7-1.8,5.5-3.1,5.5-3.1c1.2,0,3.7,3.1,8.6,9.2c4.9,6.1,8,10.4,9.8,12.9c2.4,0,4.3-0.6,5.5-0.6
		c1.2,0,3.1,0,5.5,0.6c6.7-9.2,12.2-16.5,17.7-21.4l1.2-0.6c0.6,0,8.6,4.3,23.9,13.5c0.6,0.6,0.6,0.6,0.6,1.2
		c0,3.1-3.1,12.2-9.8,26.3c2.4,3.1,4.3,6.1,5.5,9.8C466.4,469.1,476.2,471.6,476.2,473.4z M426.6,290.4c0-6.7-2.4-12.2-7.3-17.1
		c-4.9-4.9-10.4-7.3-17.1-7.3c-6.7,0-12.2,2.4-17.1,7.3c-4.9,4.9-7.3,10.4-7.3,17.1c0,6.7,2.4,12.9,7.3,17.1
		c4.9,4.3,10.4,7.3,17.1,7.3c6.7,0,12.9-2.4,17.1-7.3C424.8,302.6,426.6,297.1,426.6,290.4z M426.6,486.9c0-6.7-2.4-12.2-7.3-17.1
		c-4.9-4.9-10.4-7.3-17.1-7.3c-6.7,0-12.2,2.4-17.1,7.3c-4.9,4.9-7.3,10.4-7.3,17.1c0,6.7,2.4,12.9,7.3,17.1
		c4.9,4.3,10.4,7.3,17.1,7.3c6.7,0,12.9-2.4,17.1-7.3C424.8,499.7,426.6,493.6,426.6,486.9z"/>
</g>
</svg>
