<?xml version="1.0" encoding="utf-8"?>
<!-- Generator: Adobe Illustrator 18.1.1, SVG Export Plug-In . SVG Version: 6.00 Build 0)  -->
<svg version="1.1" id="Layer_1" xmlns="http://www.w3.org/2000/svg" xmlns:xlink="http://www.w3.org/1999/xlink" x="0px" y="0px"
	 viewBox="-255 347 100 100" enable-background="new -255 347 100 100" xml:space="preserve">
<circle fill="#E74C3C" cx="-205" cy="397" r="50"/>
<path id="loop-sign" fill="none" stroke="#F0C419" stroke-width="8" stroke-linecap="square" stroke-miterlimit="10" stroke-dasharray="216,1.000000e-06" stroke-dashoffset="43" d="
	M-242.5,397.5c0,10,7,17,17,17c17,0,26-34,43-34c10,0,18,7,18,17s-8,17-18,17c-17,0-26-34-43-34
	C-235.5,380.5-242.5,387.5-242.5,397.5z"/>
<path id="shade" opacity="0.15" enable-background="new    " d="M-209.1,397.5l5,6.5c0,0-2.1,2.8-3.5,4.2c0,0-3.6-3.6-5.7-5.6
	C-212,401.3-209.1,397.5-209.1,397.5z"/>
</svg>
