<?xml version="1.0" encoding="utf-8"?>
<!-- Generator: Adobe Illustrator 18.1.1, SVG Export Plug-In . SVG Version: 6.00 Build 0)  -->
<svg version="1.1" id="Layer_1" xmlns="http://www.w3.org/2000/svg" xmlns:xlink="http://www.w3.org/1999/xlink" x="0px" y="0px"
	 viewBox="-255 347 100 100" enable-background="new -255 347 100 100" xml:space="preserve">
<g>
	<path fill="#E74C3C" d="M-205,421v26h0.1l-0.1,0c-12.8,0-25.7-4.8-35.4-14.6c-9.8-9.8-14.6-22.6-14.6-35.4
		c0-12.8,4.8-25.7,14.6-35.4L-222,380c-4.7,4.7-7,10.8-7,17c0,6.2,2.3,12.3,7,17C-217.3,418.7-211.2,421-205,421z"/>
	<path fill-opacity="0.15" d="M-205,439c-23.2,0-42-18.8-42-42c0-11.6,4.7-22.1,12.3-29.7l-5.7-5.7c-6.7,6.7-14.6,18.9-14.6,35.4
		c0,27.1,21.6,50,50,50V439z"/>
	<path fill="#FFFFFF" fill-opacity="0.15" d="M-222.1,414c-4.7-4.7-7-10.8-7-17c0-6.2,2.3-12.3,7-17l-5.6-5.6
		c-5.8,5.8-9.4,13.8-9.4,22.6c0,17.7,14.3,32,32,32v-8C-211.2,421-217.4,418.7-222.1,414z"/>
	<path fill="#EFC22D" d="M-192,434l-13-13v0l0,0l0,0l0,0c-3.3,0-6,5.8-6,13c0,7.2,2.7,13,6,13v0L-192,434z"/>
	<path fill="#2D3E4F" d="M-196.2,429.8c-1.1,1.1-1.8,2.6-1.8,4.2c0,1.7,0.7,3.2,1.8,4.2l4.2-4.2L-196.2,429.8z"/>
</g>
<g>
	<path fill="#3498DB" d="M-205,373v-26h-0.1l0.1,0c12.8,0,25.7,4.8,35.4,14.6c9.8,9.8,14.6,22.6,14.6,35.4
		c0,12.8-4.8,25.7-14.6,35.4L-188,414c4.7-4.7,7-10.9,7-17c0-6.2-2.3-12.3-7-17C-192.7,375.3-198.9,373-205,373z"/>
	<path fill-opacity="0.1" d="M-188,380c4.7,4.7,7,10.8,7,17c0,6.1-2.3,12.3-7,17l5.6,5.6c5.8-5.8,9.4-13.8,9.4-22.6
		c0-17.7-14.3-32-32-32v8C-198.9,373-192.7,375.3-188,380z"/>
	<path fill="#FFFFFF" fill-opacity="0.15" d="M-205,355c23.2,0,42,18.8,42,42c0,11.6-4.7,22.1-12.3,29.7l5.7,5.7
		c6.7-6.7,14.6-18.9,14.6-35.4c0-27.1-21.6-50-50-50C-205,347-205,355-205,355z"/>
	<path fill="#EFC22D" d="M-218,360l13,13v0l0,0l0,0l0,0c3.3,0,6-5.8,6-13c0-7.2-2.7-13-6-13v0C-205,347-218,360-218,360z"/>
	<path fill="#2D3E4F" d="M-213.8,364.2c1.1-1.1,1.8-2.6,1.8-4.2c0-1.7-0.7-3.2-1.8-4.2l-4.2,4.2L-213.8,364.2z"/>
</g>
</svg>
